<?xml version="1.0" encoding="utf-8"?>
<!-- Generator: Adobe Illustrator 15.1.0, SVG Export Plug-In . SVG Version: 6.00 Build 0)  -->
<!DOCTYPE svg PUBLIC "-//W3C//DTD SVG 1.1//EN" "http://www.w3.org/Graphics/SVG/1.1/DTD/svg11.dtd">
<svg version="1.1" id="Calque_1" xmlns="http://www.w3.org/2000/svg" xmlns:xlink="http://www.w3.org/1999/xlink" x="0px" y="0px"
	 width="241.731px" height="168.561px" viewBox="0 0 241.731 168.561" enable-background="new 0 0 241.731 168.561"
	 xml:space="preserve">
<g>
	<defs>
		<rect id="SVGID_1_" width="241.731" height="168.561"/>
	</defs>
	<clipPath id="SVGID_2_">
		<use xlink:href="#SVGID_1_"  overflow="visible"/>
	</clipPath>
	<path clip-path="url(#SVGID_2_)" fill="#4F5D66" d="M0,167.531v-26.628h9.939c4.444,0,7.87,1.222,10.28,3.706
		c2.448,2.444,3.652,5.653,3.652,9.666c0,4.011-1.204,7.258-3.615,9.663c-2.372,2.408-5.798,3.593-10.279,3.593H0z M5.798,162.182
		h3.803c6.175,0,8.434-3.018,8.434-7.907c0-2.484-0.64-4.472-1.921-5.884c-1.242-1.414-3.426-2.14-6.551-2.14H5.798V162.182z"/>
</g>
<polygon fill="#4F5D66" points="30.474,167.53 30.474,140.902 48.396,140.902 48.396,146.252 36.272,146.252 36.272,151.256 
	47.605,151.256 47.605,156.489 36.272,156.489 36.272,162.182 48.66,162.182 48.66,167.53 "/>
<g>
	<defs>
		<rect id="SVGID_3_" width="241.731" height="168.561"/>
	</defs>
	<clipPath id="SVGID_4_">
		<use xlink:href="#SVGID_3_"  overflow="visible"/>
	</clipPath>
	<path clip-path="url(#SVGID_4_)" fill="#4F5D66" d="M54.725,159.431c2.41,2.141,5.347,3.209,8.849,3.209
		c2.899,0,4.593-1.068,4.593-2.636c0-0.879-0.414-1.565-1.205-2.063c-0.79-0.496-2.372-1.186-4.668-2.025
		c-4.481-1.641-7.079-3.972-7.079-7.946c0-2.331,0.904-4.127,2.673-5.463c1.808-1.337,4.029-2.024,6.702-2.024
		c2.674,0,5.008,0.61,7.041,1.796v5.845c-1.806-1.491-4.067-2.254-6.815-2.254c-2.409,0-3.765,0.84-3.765,2.063
		c0,0.765,0.339,1.336,1.356,1.948l1.28,0.65l1.731,0.687l1.658,0.65c2.522,1.03,4.291,2.139,5.308,3.324
		c1.055,1.184,1.581,2.788,1.581,4.813c0,4.699-3.539,7.947-10.127,7.947c-3.352,0-6.402-0.802-9.113-2.408V159.431z"/>
	<path clip-path="url(#SVGID_4_)" fill="#4F5D66" d="M100.872,143.233v6.151c-2.334-2.37-5.046-3.553-8.133-3.553
		c-2.334,0-4.291,0.801-5.911,2.406c-1.62,1.604-2.41,3.593-2.41,5.997c0,2.407,0.79,4.395,2.372,5.998
		c1.62,1.567,3.577,2.369,5.949,2.369c3.087,0,5.799-1.184,8.133-3.554v6.152c-2.297,1.835-5.008,2.751-8.133,2.751
		c-3.953,0-7.266-1.301-10.015-3.897c-2.748-2.636-4.104-5.883-4.104-9.819c0-3.934,1.356-7.182,4.104-9.816
		c2.749-2.636,6.062-3.937,10.015-3.937C95.863,140.482,98.574,141.398,100.872,143.233"/>
</g>
<polygon fill="#4F5D66" points="108.364,167.53 108.364,140.902 114.162,140.902 114.162,150.798 125.532,150.798 125.532,140.902 
	131.333,140.902 131.333,167.53 125.532,167.53 125.532,156.145 114.162,156.145 114.162,167.53 "/>
<path fill="#4F5D66" d="M136.564,167.53l13.668-28.155L163.9,167.53h-6.175l-2.033-4.24h-10.958l-2.033,4.24H136.564z
	 M146.88,158.285h6.664l-3.351-6.989L146.88,158.285z"/>
<polygon fill="#4F5D66" points="169.135,167.53 174.858,167.53 174.858,152.441 192.479,168.561 192.479,140.904 186.757,140.904 
	186.757,156.033 169.135,139.872 "/>
<polygon fill="#4F5D66" points="200.367,167.53 200.367,140.902 218.289,140.902 218.289,146.252 206.165,146.252 206.165,151.256 
	217.499,151.256 217.499,156.489 206.165,156.489 206.165,162.182 218.554,162.182 218.554,167.53 "/>
<polygon fill="#4F5D66" points="225.692,140.902 225.692,167.528 241.731,167.528 241.731,162.183 231.49,162.183 231.49,140.902 
	"/>
<rect x="57.634" y="0.054" fill="#4F5D66" width="126.392" height="126.392"/>
<g>
	<defs>
		<rect id="SVGID_5_" width="241.731" height="168.561"/>
	</defs>
	<clipPath id="SVGID_6_">
		<use xlink:href="#SVGID_5_"  overflow="visible"/>
	</clipPath>
	<path clip-path="url(#SVGID_6_)" fill="none" stroke="#FFFFFF" stroke-width="0.829" stroke-miterlimit="10" d="M71.708,0.054
		v126.393 M57.633,14.49h126.392 M57.633,111.033h126.392 M57.522,29.81h29.534V0.039 M57.566,95.652h29.49v30.802 M170.023,0.054
		v126.393 M184.208,29.81h-29.531V0.039 M184.164,95.652h-29.487v30.802"/>
</g>
<rect x="163.005" y="7.472" fill="#4F5D66" width="14.037" height="14.037"/>
<rect x="163.005" y="7.472" fill="none" stroke="#FFFFFF" stroke-width="0.829" stroke-miterlimit="10" width="14.037" height="14.037"/>
<rect x="64.689" y="7.472" fill="#4F5D66" width="14.037" height="14.037"/>
<rect x="64.689" y="7.472" fill="none" stroke="#FFFFFF" stroke-width="0.829" stroke-miterlimit="10" width="14.037" height="14.037"/>
<rect x="64.689" y="103.953" fill="#4F5D66" width="14.037" height="14.037"/>
<rect x="64.689" y="103.953" fill="none" stroke="#FFFFFF" stroke-width="0.829" stroke-miterlimit="10" width="14.037" height="14.037"/>
<rect x="163.005" y="103.953" fill="#4F5D66" width="14.037" height="14.037"/>
<rect x="163.005" y="103.953" fill="none" stroke="#FFFFFF" stroke-width="0.829" stroke-miterlimit="10" width="14.037" height="14.037"/>
<polygon fill="#FFFFFF" points="99.785,42.01 91.066,42.01 91.066,37.013 105.52,37.013 105.52,90.106 99.785,90.106 "/>
<g>
	<defs>
		<rect id="SVGID_7_" width="241.731" height="168.561"/>
	</defs>
	<clipPath id="SVGID_8_">
		<use xlink:href="#SVGID_7_"  overflow="visible"/>
	</clipPath>
	<path clip-path="url(#SVGID_8_)" fill="#FFFFFF" d="M112.096,74.257c0-7.34,4.947-12.415,12.097-14.288
		c-4.556-1.796-7.62-5.544-7.62-10.932c0-7.26,6.441-12.648,14.846-12.648c8.406,0,14.927,5.388,14.927,12.648
		c0,5.388-3.144,9.214-7.699,10.932c7.147,1.951,12.019,6.948,12.019,14.288c0,9.602-7.855,16.474-19.246,16.474
		C120.031,90.731,112.096,83.859,112.096,74.257 M144.852,74.1c0-6.715-5.264-11.477-13.433-11.477
		c-8.09,0-13.51,4.762-13.51,11.477c0,6.793,5.42,11.557,13.51,11.557C139.588,85.657,144.852,80.815,144.852,74.1 M140.688,49.428
		c0-4.607-3.612-8.121-9.27-8.121c-5.655,0-9.269,3.514-9.269,8.121c0,4.841,3.613,8.276,9.269,8.276
		C137.076,57.704,140.688,54.269,140.688,49.428"/>
	<path clip-path="url(#SVGID_8_)" fill="none" stroke="#FFFFFF" stroke-width="0.829" stroke-miterlimit="10" d="M57.523,63.246
		h14.506 M169.659,63.246h14.356 M120.77,126.493v-14.506 M120.77,14.357V0"/>
</g>
</svg>
